<svg xmlns="http://www.w3.org/2000/svg" viewBox="0 0 400 250">
  <rect width="400" height="250" rx="12" fill="#f1f5f9"/>
  <!-- Base plate -->
  <line x1="60" y1="235" x2="340" y2="235" stroke="#2563eb" stroke-width="3" fill="none"/>
  <!-- Left vertical guide rail -->
  <rect x="95" y="20" width="10" height="215" rx="2" stroke="#2563eb" stroke-width="3" fill="none"/>
  <!-- Right vertical guide rail -->
  <rect x="295" y="20" width="10" height="215" rx="2" stroke="#2563eb" stroke-width="3" fill="none"/>
  <!-- Top crossbar -->
  <line x1="100" y1="20" x2="300" y2="20" stroke="#2563eb" stroke-width="3" fill="none"/>
  <!-- Left base foot -->
  <line x1="60" y1="235" x2="140" y2="235" stroke="#2563eb" stroke-width="4" fill="none"/>
  <!-- Right base foot -->
  <line x1="260" y1="235" x2="340" y2="235" stroke="#2563eb" stroke-width="4" fill="none"/>
  <!-- Left rail to base -->
  <line x1="100" y1="235" x2="100" y2="235" stroke="#2563eb" stroke-width="3" fill="none"/>
  <line x1="300" y1="235" x2="300" y2="235" stroke="#2563eb" stroke-width="3" fill="none"/>
  <!-- Safety catch hooks on left rail -->
  <line x1="85" y1="80" x2="95" y2="80" stroke="#2563eb" stroke-width="3" fill="none"/>
  <line x1="85" y1="77" x2="85" y2="83" stroke="#2563eb" stroke-width="3" fill="none"/>
  <line x1="85" y1="120" x2="95" y2="120" stroke="#2563eb" stroke-width="3" fill="none"/>
  <line x1="85" y1="117" x2="85" y2="123" stroke="#2563eb" stroke-width="3" fill="none"/>
  <line x1="85" y1="160" x2="95" y2="160" stroke="#2563eb" stroke-width="3" fill="none"/>
  <line x1="85" y1="157" x2="85" y2="163" stroke="#2563eb" stroke-width="3" fill="none"/>
  <line x1="85" y1="200" x2="95" y2="200" stroke="#2563eb" stroke-width="3" fill="none"/>
  <line x1="85" y1="197" x2="85" y2="203" stroke="#2563eb" stroke-width="3" fill="none"/>
  <!-- Safety catch hooks on right rail -->
  <line x1="305" y1="80" x2="315" y2="80" stroke="#2563eb" stroke-width="3" fill="none"/>
  <line x1="315" y1="77" x2="315" y2="83" stroke="#2563eb" stroke-width="3" fill="none"/>
  <line x1="305" y1="120" x2="315" y2="120" stroke="#2563eb" stroke-width="3" fill="none"/>
  <line x1="315" y1="117" x2="315" y2="123" stroke="#2563eb" stroke-width="3" fill="none"/>
  <line x1="305" y1="160" x2="315" y2="160" stroke="#2563eb" stroke-width="3" fill="none"/>
  <line x1="315" y1="157" x2="315" y2="163" stroke="#2563eb" stroke-width="3" fill="none"/>
  <line x1="305" y1="200" x2="315" y2="200" stroke="#2563eb" stroke-width="3" fill="none"/>
  <line x1="315" y1="197" x2="315" y2="203" stroke="#2563eb" stroke-width="3" fill="none"/>
  <!-- Barbell bar -->
  <line x1="70" y1="130" x2="330" y2="130" stroke="#2563eb" stroke-width="4" fill="none"/>
  <!-- Barbell slider on left rail -->
  <rect x="92" y="124" width="16" height="12" rx="2" stroke="#2563eb" stroke-width="2" fill="#dbeafe"/>
  <!-- Barbell slider on right rail -->
  <rect x="292" y="124" width="16" height="12" rx="2" stroke="#2563eb" stroke-width="2" fill="#dbeafe"/>
  <!-- Weight plates left -->
  <rect x="72" y="118" width="8" height="24" rx="2" stroke="#2563eb" stroke-width="2" fill="#dbeafe"/>
  <rect x="62" y="120" width="8" height="20" rx="2" stroke="#2563eb" stroke-width="2" fill="#dbeafe"/>
  <!-- Weight plates right -->
  <rect x="320" y="118" width="8" height="24" rx="2" stroke="#2563eb" stroke-width="2" fill="#dbeafe"/>
  <rect x="330" y="120" width="8" height="20" rx="2" stroke="#2563eb" stroke-width="2" fill="#dbeafe"/>
</svg>